<svg xmlns="http://www.w3.org/2000/svg" height="512" viewBox="0 0 60 60" width="512"><g id="Page-1" fill="none" fill-rule="evenodd"><g id="036---Crossed-Pencils" fill-rule="nonzero"><path id="Shape" d="m18.67 50.78-7.33 7.34c-1.1751514 1.1698661-3.07484863 1.1698661-4.25 0l-5.21-5.21c-1.16986609-1.1751514-1.16986609-3.0748486 0-4.25l7.34-7.33z" fill="#e8edfc"></path><path id="Shape" d="m9.22 41.33-1.5 1.5 7.95 7.95-7.33 7.34c-.18644981.1812832-.39590882.3372848-.623.464 1.17351135.6830574 2.6594993.492746 3.623-.464l7.33-7.34z" fill="#cad9fc"></path><path id="Shape" d="m48 12-13.27 13.27-4.73-4.73 13.09-13.09.46.1z" fill="#cad9fc"></path><path id="Shape" d="m52.78 16.62c-.0174538.0370849-.0411293.070907-.07.1-.0478468.0677575-.1013733.1313202-.16.19l-13.1 13.09-4.72-4.73 13.27-13.27 4.45 4.45z" fill="#a4c2f7"></path><path id="Shape" d="m56.26 8.78-3.43 7.73c-.0143741.0376661-.0310728.0744035-.05.11l-.33-.17-8.9-8.9-.46-.1c.1155894-.11641582.2510518-.21123952.4-.28l7.73-3.43.11.25 4.68 4.68z" fill="#e8edfc"></path><path id="Shape" d="m56.01 8.67-4.68-4.68-.11-.25-2.175.965 3.965 3.965.25.11-2.606 5.874 1.8 1.8.33.17c.0189272-.0355965.0356259-.0723339.05-.11l3.43-7.73z" fill="#cad9fc"></path><path id="Shape" d="m58.88 2.89-2.62 5.89-.25-.11-4.68-4.68-.11-.25 5.89-2.62c.5070274-.22529827 1.1004426-.11509044 1.4927665.27723346.3923239.39232391.5025318.98573914.2772335 1.49276654z" fill="#a4c2f7"></path><path id="Rectangle-path" d="m19.672 37.051h9.33v6.679h-9.33z" fill="#a4c2f7" transform="matrix(.707 -.707 .707 .707 -21.432 29.039)"></path><path id="Shape" d="m23.4 46.05-4.73 4.73-9.45-9.45 4.73-4.73 4.72 4.73h.01z" fill="#e8edfc"></path><path id="Shape" d="m58.12 52.91-5.21 5.21c-1.1751514 1.1698661-3.0748486 1.1698661-4.25 0l-7.33-7.34 9.45-9.45 7.34 7.33c1.1698661 1.1751514 1.1698661 3.0748486 0 4.25z" fill="#e8edfc"></path><path id="Shape" d="m58.12 48.66-7.34-7.33-1.5 1.5 5.84 5.83c1.1698661 1.1751514 1.1698661 3.0748486 0 4.25l-5.21 5.21c-.1880488.1811377-.3988086.3371067-.627.464 1.1750352.6822623 2.6615585.4920922 3.627-.464l5.21-5.21c1.1698661-1.1751514 1.1698661-3.0748486 0-4.25z" fill="#cad9fc"></path><path id="Shape" d="m25.27 34.73-6.59 6.6h-.01l-4.72-4.73 6.6-6.6z" fill="#cad9fc"></path><path id="Shape" d="m50.78 41.33-9.45 9.45-4.73-4.73 4.73-4.72 4.72-4.73z" fill="#e8edfc"></path><path id="Shape" d="m41.33 41.33-4.73 4.72-6.6-6.6-4.73-4.72-4.72-4.73-13.1-13.09c-.11641582-.1155894-.21123952-.2510518-.28-.4l.38-.06 4.45-4.45z" fill="#cad9fc"></path><path id="Shape" d="m46.05 36.6-4.72 4.73-29.33-29.33 4.45-4.45.17-.33c.0370849.01745378.070907.04112927.1.07.0677575.04784683.1313202.10137331.19.16l13.09 13.09 4.73 4.73 4.72 4.73z" fill="#a4c2f7"></path><path id="Shape" d="m16.62 7.22-.17.33-8.9 8.9-.38.06-3.43-7.73.25-.11 4.68-4.68.11-.25 7.73 3.43c.0376661.01437405.0744035.03107285.11.05z" fill="#e8edfc"></path><path id="Shape" d="m16.51 7.17-7.73-3.43-.11.25-.715.715 5.555 2.465c.0376661.01437405.0744035.03107285.11.05l-.17.33-7.1 7.1.82 1.86.38-.06 8.9-8.9.17-.33c-.0355965-.01892715-.0723339-.03562595-.11-.05z" fill="#cad9fc"></path><path id="Shape" d="m8.78 3.74-.11.25-4.68 4.68-.25.11-2.62-5.89c-.22529827-.5070274-.11509044-1.10044263.27723346-1.49276654.39232391-.3923239.98573914-.50253173 1.49276654-.27723346z" fill="#a4c2f7"></path><path id="Shape" d="m10.09 58.12-5.21-5.21c-1.16986609-1.1751514-1.16986609-3.0748486 0-4.25l5.839-5.831 1.5-1.5 4.73-4.73 6.6-6.6-13.099-13.089c-.1164158-.1155894-.2112395-.2510518-.28-.4l-3.43-7.73-2.62-5.89c-.17835104-.38515681-.15744576-.83312704.056-1.2l-1.286-.57c-.5070274-.22529827-1.10044263-.11509044-1.49276654.27723346-.3923239.39232391-.50253173.98573914-.27723346 1.49276654l2.62 5.89 3.43 7.73c.06876048.1489482.16358418.2844106.28.4l13.1 13.09-6.6 6.6-4.73 4.73-1.5 1.5-5.84 5.83c-1.16986609 1.1751514-1.16986609 3.0748486 0 4.25l5.21 5.21c.18804877.1811377.39880862.3371067.627.464.41902801.2422166.89043902.3794542 1.374.4h.024c.1171691.0018471.23435023-.0028267.351-.014.065 0 .13-.01.194-.019.1-.014.189-.034.283-.057.0879162-.0212414.174695-.0469413.26-.077.077-.027.154-.054.23-.087.0973046-.0448375.1921101-.0949108.284-.15-.2279627-.1256527-.4387118-.2802693-.627-.46z" fill="#fff"></path><path id="Rectangle-path" d="m.707 44.834h8v2h-8z" fill="#fff" transform="matrix(.707 -.707 .707 .707 -31.031 16.753)"></path><g fill="#428dff"><path id="Shape" d="m7.314 53.685c-.26519481-.0000566-.51950727-.1054506-.707-.293l-1.9-1.9c-.39038194-.3904999-.39038194-1.0235001 0-1.414l1.9-1.9c.39425229-.3633867 1.00494187-.3511685 1.38434381.0276968.37940193.3788653.39248447.989537.02965619 1.3843032l-1.193 1.194 1.193 1.194c.28590792.2859943.37142191.7160366.21667798 1.0896546-.15474393.3736179-.51928208.6172591-.92367798.6173454z"></path><path id="Shape" d="m52.685 53.685c-.4043959-.0000863-.7689341-.2437275-.923678-.6173454-.1547439-.373618-.0692299-.8036603.216678-1.0896546l1.194-1.194-1.194-1.194c-.3789722-.3923789-.3735524-1.0160848.0121814-1.4018186s1.0094397-.3911536 1.4018186-.0121814l1.9 1.9c.3903819.3904999.3903819 1.0235001 0 1.414l-1.9 1.9c-.1871648.188283-.4415178.2944134-.707.295z"></path><path id="Shape" d="m4.727 46.834c-.55228473.0027614-1.00223852-.4427153-1.00499994-.995-.00276143-.5522847.44271521-1.0022385.99499994-1.005h.01c.55228475 0 1 .4477153 1 1s-.44771525 1-1 1z"></path><path id="Shape" d="m51.491 40.618-10.622-10.618 12.388-12.383c.2028169-.2023922.3677532-.4394669.487-.7l6.049-13.617c.3971913-.88623067.2059521-1.92566976-.4806558-2.61249966-.686608-.6868299-1.7259852-.87840515-2.6123442-.48150034l-13.634 6.058c-.2540921.11821002-.4853099.28036717-.683.479l-12.383 12.384-12.385-12.384c-.2014296-.20293536-.4387848-.36671045-.7-.483l-13.623-6.054c-.88405863-.39405643-1.91954288-.20236729-2.60395508.48204492-.68441221.6844122-.87610135 1.71989645-.48204492 2.60395508l6.055 13.624c.11635253.2609328.27974146.4982196.482.7l12.389 12.384-5.869 5.869c-.007.007-.017.009-.025.016s-.009.017-.016.025l-4.687 4.69c-.008.007-.018.009-.026.017l-1.681 1.683c-.39046532.3907415-.39024146 1.0240347.0005 1.4145s1.02403468.3902415 1.4145-.0005l.973-.973 8.045 8.044-6.631 6.63c-.791167.755814-2.036833.755814-2.828 0l-5.216-5.215c-.78076388-.7809997-.78076388-2.0470003 0-2.828.25995658-.2510745.3642126-.6228779.27269716-.9725073-.09151544-.3496295-.3645604-.6226744-.71418984-.7141899-.34962943-.0915154-.72143285.0127406-.97250732.2726972-1.56152775 1.5619994-1.56152775 4.0940006 0 5.656l5.216 5.216c1.56199941 1.5615278 4.0940006 1.5615278 5.656 0l7.338-7.337c.008-.008.011-.019.019-.028l4.683-4.683c.008-.008.019-.01.027-.018s.011-.019.018-.027l5.871-5.869 5.892 5.893 4.729 4.729 7.338 7.337c1.5619994 1.5615278 4.0940006 1.5615278 5.656 0l5.216-5.216c1.5615278-1.5619994 1.5615278-4.0940006 0-5.656zm-10.166 8.752-3.315-3.315 8.045-8.045 3.315 3.315zm11.082-34.37-7.407-7.407 5.9-2.621 4.128 4.128zm5.111-12.967c.1280116-.06545371.2839042-.03811128.382.067.1039733.09770164.1323346.2516627.07.38l-2.07 4.66-3.04-3.04zm-14.251 6.654 3.315 3.313-5.505 5.506c-.2599566.2510745-.3642126.6228779-.2726972.9725073.0915155.3496295.3645604.6226744.7141899.7141899.3496294.0915154.7214328-.0127406.9725073-.2726972l5.509-5.503 3.316 3.316-11.861 11.849-3.311-3.311 2.563-2.564c.3789722-.3923789.3735524-1.0160848-.0121814-1.4018186s-1.0094397-.3911536-1.4018186-.0121814l-2.563 2.564-3.317-3.316zm-4.541 21.994c.007.008.01.018.017.026s.018.01.026.017l5.872 5.876-3.316 3.315-16.318-16.322c-.3923789-.3789722-1.0160848-.3735524-1.4018186.0121814s-.3911536 1.0094397-.0121814 1.4018186l16.318 16.318-3.311 3.316-5.873-5.873c-.007-.008-.009-.018-.016-.025s-.017-.009-.025-.016l-9.41-9.411c-.006-.007-.008-.016-.015-.023s-.017-.009-.024-.016l-12.548-12.545 3.311-3.315 7.806 7.806c.3923789.3789722 1.0160848.3735524 1.4018186-.0121814s.3911536-1.0094397.0121814-1.4018186l-7.802-7.809 3.314-3.315zm-36.626-28.581c.09532446-.10438627.24811356-.13331433.375-.071l4.663 2.071-3.033 3.038-2.071-4.659c-.06739601-.12653951-.04020331-.2826915.066-.379zm2.875 7 4.125-4.126 5.9 2.626-7.4 7.4zm18.881 25.629-5.181 5.182-3.311-3.311 5.182-5.182zm-13.222 6.6 3.315-3.316 3.995 3.995c.008.008.011.02.019.028s.02.011.028.019l4 3.994-3.321 3.316zm12.766 3.307-3.311-3.311 5.182-5.182 3.311 3.311zm34.014 7.564-5.214 5.214c-.791167.755814-2.036833.755814-2.828 0l-6.631-6.63 8.045-8.045 6.63 6.631c.7807639.7809997.7807639 2.0470003 0 2.828z"></path></g></g></g></svg>