<svg xmlns="http://www.w3.org/2000/svg" height="512" viewBox="0 0 60 60" width="512"><g id="Colours"><path d="m9 12.11v-10.11a1 1 0 0 1 1-1h2a1 1 0 0 1 1 1v3a1 1 0 0 0 1 1h2a1 1 0 0 0 1-1v-3a1 1 0 0 1 1-1h2a1 1 0 0 1 1 1v3a1 1 0 0 0 1 1h2a1 1 0 0 0 1-1v-3a1 1 0 0 1 1-1h2a1 1 0 0 1 1 1v3a1 1 0 0 0 1 1h2a1 1 0 0 0 1-1v-3a1 1 0 0 1 1-1h2a1 1 0 0 1 1 1v3a1 1 0 0 0 1 1h2a1 1 0 0 0 1-1v-3a1 1 0 0 1 1-1h2a1 1 0 0 1 1 1v3a1 1 0 0 0 1 1h2a1 1 0 0 0 1-1v-3a1 1 0 0 1 1-1h2a1 1 0 0 1 1 1v55a2.006 2.006 0 0 1 -2 2h-40a2.006 2.006 0 0 1 -2-2z" fill="#e8edfc"></path><path d="m52 1h-2a.969.969 0 0 0 -.5.154.989.989 0 0 1 .5.846v55a2.006 2.006 0 0 1 -2 2h3a2.006 2.006 0 0 0 2-2v-55a1 1 0 0 0 -1-1z" fill="#cad9fc"></path><path d="m41.38 52.9-4.26-2.02 3.57-3.57 2.02 4.25a1 1 0 0 1 -1.33 1.34z" fill="#a4c2f7"></path><path d="m40.69 47.31-3.57 3.57-6.05-2.86a4.192 4.192 0 0 1 -.58-.34l3.5-3.5 3.5-3.51a3.123 3.123 0 0 1 .34.59z" fill="#c6d8fb"></path><path d="m37.83 41.26a3.123 3.123 0 0 0 -.34-.59l-1.994 2 2.194 4.64-2.607 2.607 2.037.963 3.57-3.57z" fill="#a4c3fd"></path><path d="m33.99 44.18-3.5 3.5a4.655 4.655 0 0 1 -.53-.45l-21.39-21.39 3.54-3.54z" fill="#e8edfc"></path><path d="m37.49 40.67-3.5 3.51-21.88-21.88 3.55-3.55 21.38 21.39a3.818 3.818 0 0 1 .45.53z" fill="#cad9fc"></path><path d="m4.976 17.163h10.023v6.014h-10.023z" fill="#c6d8fb" transform="matrix(.707 -.707 .707 .707 -11.337 12.97)"></path><path d="m11.4 14.5-1.497 1.499 2.757 2.751-5.59 5.59 1.5 1.5 7.09-7.09z" fill="#a4c3fd"></path><path d="m11.4 14.5-7.08 7.09h-.01l-2.12-2.13a3.9 3.9 0 0 1 -1.15-3.3 5.672 5.672 0 0 1 1.72-3.21 5.7 5.7 0 0 1 3.21-1.73 3.936 3.936 0 0 1 3.31 1.15z" fill="#a4c2f7"></path><path d="m9.28 12.37a3.936 3.936 0 0 0 -3.31-1.15 4.923 4.923 0 0 0 -1.015.268 4.088 4.088 0 0 1 1.325.882l2.12 2.13-5.583 5.59 1.493 1.5h.01l7.08-7.09z" fill="#7facfa"></path></g><g id="Colours_copy" fill="#fff" data-name="Colours copy"><path d="m9 2.008v9.992c1 1 2.166 2.3 3 3v-12.99a.986.986 0 0 1 .5-.845c-.375-.224-.446-.155-2.5-.155a1 1 0 0 0 -1 .998z"></path><path d="m14 59h-3a2.006 2.006 0 0 1 -2-2v-29.48l3 2.46v27.02a2.006 2.006 0 0 0 2 2z"></path></g><g id="Outline"><path d="m8 49h2v8h-2z" fill="#fff"></path><g fill="#428dff"><circle cx="9" cy="53" r="1"></circle><path d="m7.86 26.549.14.139v22.312a1 1 0 0 0 2 0v-20.311l19.248 19.249a5 5 0 0 0 1.4.984l10.303 4.878a2.016 2.016 0 0 0 .864.2 2.007 2.007 0 0 0 1.8-2.864l-4.881-10.3a4.993 4.993 0 0 0 -.985-1.4l-21.386-21.391-6.363-6.364v-9.681h2v3a2 2 0 0 0 2 2h2a2 2 0 0 0 2-2v-3h2v3a2 2 0 0 0 2 2h2a2 2 0 0 0 2-2v-3h2v3a2 2 0 0 0 2 2h2a2 2 0 0 0 2-2v-3h2v3a2 2 0 0 0 2 2h2a2 2 0 0 0 2-2v-3h2v3a2 2 0 0 0 2 2h2a2 2 0 0 0 2-2v-3h2v55a1 1 0 0 1 -1 1h-40a1 1 0 0 1 -1-1 1 1 0 0 0 -2 0 3 3 0 0 0 3 3h40a3 3 0 0 0 3-3v-55a2 2 0 0 0 -2-2h-2a2 2 0 0 0 -2 2v3h-2v-3a2 2 0 0 0 -2-2h-2a2 2 0 0 0 -2 2v3h-2v-3a2 2 0 0 0 -2-2h-2a2 2 0 0 0 -2 2v3h-2v-3a2 2 0 0 0 -2-2h-2a2 2 0 0 0 -2 2v3h-2v-3a2 2 0 0 0 -2-2h-2a2 2 0 0 0 -2 2v3h-2v-3a2 2 0 0 0 -2-2h-2a2 2 0 0 0 -2 2v8.438a4.723 4.723 0 0 0 -2.173-.205 6.666 6.666 0 0 0 -3.774 2 6.671 6.671 0 0 0 -2 3.775 4.928 4.928 0 0 0 1.431 4.155zm28.262 14.083-2.131 2.13-20.465-20.462 2.13-2.13zm-26.141-14.79 2.131-2.131 20.465 20.465-2.13 2.131zm28.848 24.743 1.571-1.568 1.407 2.983zm.66-3.488-2.579 2.579-4.753-2.251 5.082-5.083zm-28.084-25.507-2.838 2.838-2.84-2.84 5.673-5.675 2.839 2.839zm-9.379-5.29a4.728 4.728 0 0 1 1.441-2.648 4.721 4.721 0 0 1 2.647-1.44 2.916 2.916 0 0 1 2.455.867l1.42 1.42-5.676 5.675-1.419-1.42a2.927 2.927 0 0 1 -.868-2.454z"></path><path d="m49 13a1 1 0 0 0 -1-1h-31a1 1 0 0 0 0 2h31a1 1 0 0 0 1-1z"></path><path d="m25 21h23a1 1 0 0 0 0-2h-23a1 1 0 0 0 0 2z"></path><path d="m31 28h17a1 1 0 0 0 0-2h-17a1 1 0 0 0 0 2z"></path><path d="m38 35h10a1 1 0 0 0 0-2h-10a1 1 0 0 0 0 2z"></path><path d="m44 42h4a1 1 0 0 0 0-2h-4a1 1 0 0 0 0 2z"></path><path d="m48 47h-2a1 1 0 0 0 0 2h2a1 1 0 0 0 0-2z"></path><path d="m14 49h10a1 1 0 0 0 0-2h-10a1 1 0 0 0 0 2z"></path><path d="m14 42h4a1 1 0 0 0 0-2h-4a1 1 0 0 0 0 2z"></path></g></g></svg>