<svg xmlns="http://www.w3.org/2000/svg" xmlns:xlink="http://www.w3.org/1999/xlink" id="Capa_1" x="0px" y="0px" viewBox="0 0 505.152 505.152" style="enable-background:new 0 0 505.152 505.152;" xml:space="preserve"><g> <g transform="translate(1 1)"> <path style="fill:#FDD7AD;" d="M76.086,411.051v67.148c0,9.271,7.516,16.787,16.787,16.787h318.951   c9.271,0,16.787-7.516,16.787-16.787v-37.14c-17.655,5.125-36.456,4.719-53.873-1.164c-47.843-15.533-74.412-66.543-59.716-114.65   c14.696-48.107,65.233-75.563,113.59-61.709V117.281L319.496,8.166H92.873c-9.271,0-16.787,7.516-16.787,16.787V411.051z"></path> <path style="fill:#A4C2F7;" d="M429.31,117.281v377.705H93.573c-9.26-0.027-16.76-7.527-16.787-16.787V24.953   c0.027-9.26,7.527-16.76,16.787-16.787h226.623L429.31,117.281z"></path> <path style="fill:#E3E7F2;" d="M404.13,117.281v377.705H93.573c-9.26-0.027-16.76-7.527-16.787-16.787V24.953   c0.027-9.26,7.527-16.76,16.787-16.787h201.443L404.13,117.281z"></path> <path style="fill:#A4C2F7;" d="M320.195,8.166v92.328c0,9.271,7.516,16.787,16.787,16.787h92.328L320.195,8.166z"></path> <path style="fill:#D4E1F4;" d="M495.758,352.297c0.014,24.491-9.709,47.983-27.027,65.301   c-17.318,17.318-40.81,27.041-65.301,27.027c-4.215,0.033-8.425-0.276-12.59-0.923c-45.688-6.259-79.737-45.29-79.737-91.405   s34.05-85.146,79.737-91.405c4.165-0.647,8.375-0.956,12.59-0.923c24.491-0.014,47.983,9.709,65.301,27.027   C486.049,304.314,495.772,327.806,495.758,352.297z"></path> <ellipse style="fill:#F5F5F5;" cx="390.84" cy="352.297" rx="79.738" ry="91.405"></ellipse> <g> <path style="fill:#E3E7F2;" d="M126.447,391.579v2.686c-16.032,0.001-31.337-6.693-42.219-18.466l-59.51-64.462l25.18-25.18    l61.272,66.392C120.981,363.18,126.434,377.112,126.447,391.579z"></path> <path style="fill:#E3E7F2;" d="M49.899,286.157l-25.18,25.18l-12.59-13.597c-6.675-7.232-6.224-18.505,1.007-25.18    s18.505-6.224,25.18,1.007L49.899,286.157z"></path> </g> </g> <g transform="translate(10 1)"> <path style="fill:#FFFFFF;" d="M92.267,260.137V25.121c0-9.271,7.516-16.787,16.787-16.787h-25.18   c-9.271,0-16.787,7.516-16.787,16.787v235.016H92.267z"></path> <path style="fill:#FFFFFF;" d="M67.086,367.148v111.219c0,9.271,7.516,16.787,16.787,16.787h25.18   c-9.271,0-16.787-7.516-16.787-16.787v-92.496L67.086,367.148z"></path> </g> <g> <polygon style="fill:#FFFFFF;" points="68.693,244.182 68.693,135.068 68.693,25.953 85.48,25.953 85.48,135.068 85.48,244.182      "></polygon> <g> <path style="fill:#428DFF;" d="M127.447,185.428H379.25c4.636,0,8.393-3.758,8.393-8.393c0-4.636-3.758-8.393-8.393-8.393    H127.447c-4.636,0-8.393,3.758-8.393,8.393C119.053,181.67,122.811,185.428,127.447,185.428z"></path> <path style="fill:#428DFF;" d="M278.529,428.838H135.84c-4.636,0-8.393,3.758-8.393,8.393s3.758,8.393,8.393,8.393h142.689    c4.636,0,8.393-3.758,8.393-8.393S283.164,428.838,278.529,428.838z"></path> <path style="fill:#428DFF;" d="M127.447,227.396H379.25c4.636,0,8.393-3.758,8.393-8.393c0-4.636-3.758-8.393-8.393-8.393    H127.447c-4.636,0-8.393,3.758-8.393,8.393C119.053,223.638,122.811,227.396,127.447,227.396z"></path> <path style="fill:#428DFF;" d="M127.447,269.363h182.344c4.636,0,8.393-3.758,8.393-8.393c0-4.636-3.758-8.393-8.393-8.393    H127.447c-4.636,0-8.393,3.758-8.393,8.393C119.053,265.605,122.811,269.363,127.447,269.363z"></path> <path style="fill:#428DFF;" d="M127.447,311.33h156.295c4.636,0,8.393-3.758,8.393-8.393s-3.758-8.393-8.393-8.393H127.447    c-4.636,0-8.393,3.758-8.393,8.393S122.811,311.33,127.447,311.33z"></path> <path style="fill:#428DFF;" d="M278.529,336.51H152.627c-4.636,0-8.393,3.758-8.393,8.393c0,4.636,3.758,8.393,8.393,8.393    h125.902c4.636,0,8.393-3.758,8.393-8.393C286.922,340.268,283.164,336.51,278.529,336.51z"></path> <path style="fill:#428DFF;" d="M505.152,353.297c-0.073-42.634-26.96-80.611-67.148-94.845V118.281    c0-0.179-0.092-0.339-0.103-0.516c-0.046-0.742-0.192-1.475-0.434-2.178c-0.079-0.264-0.171-0.524-0.277-0.779    c-0.396-0.913-0.953-1.747-1.645-2.462L326.431,3.232c-0.713-0.69-1.545-1.246-2.455-1.641c-0.261-0.109-0.527-0.203-0.797-0.284    c-0.693-0.237-1.414-0.38-2.145-0.427c-0.185-0.012-0.351-0.107-0.537-0.107H93.873c-13.9,0.015-25.165,11.28-25.18,25.18    v117.508c0,4.636,3.758,8.393,8.393,8.393c4.636,0,8.393-3.758,8.393-8.393V25.953c0.005-4.634,3.76-8.389,8.393-8.393h218.229    v83.934c0.015,13.9,11.28,25.165,25.18,25.18h83.934v127.352c-0.459-0.079-0.918-0.073-1.377-0.145    c-3.154-0.487-6.35-0.824-9.59-1.011c-1.166-0.07-2.328-0.149-3.492-0.177c-0.782-0.018-1.542-0.118-2.328-0.118    c-2.355,0-4.66,0.194-6.973,0.353c-0.875,0.06-1.756,0.05-2.627,0.133c-3.881,0.371-7.738,0.969-11.549,1.79    c-0.805,0.173-1.585,0.422-2.384,0.614c-3.013,0.725-5.974,1.569-8.875,2.558c-1.116,0.381-2.212,0.797-3.314,1.216    c-2.62,0.998-5.183,2.102-7.69,3.31c-1.058,0.507-2.122,0.983-3.163,1.526c-3.132,1.63-6.176,3.423-9.121,5.372    c-0.856,0.569-1.668,1.201-2.51,1.797c-2.378,1.692-4.693,3.459-6.911,5.346c-1.241,1.052-2.42,2.169-3.612,3.283    c-1.628,1.525-3.203,3.101-4.724,4.727c-0.717,0.767-1.524,1.43-2.219,2.221c-0.465,0.529-0.846,1.113-1.299,1.65    c-0.893,1.059-1.721,2.169-2.571,3.265c-1.204,1.556-2.422,3.097-3.528,4.714c-0.994,1.448-1.879,2.969-2.797,4.469    c-0.809,1.329-1.679,2.622-2.424,3.985c-5.041,9.176-8.608,19.088-10.572,29.371c-0.053,0.277-0.078,0.559-0.129,0.837    c-0.563,3.077-1.006,6.194-1.283,9.361c-0.086,0.969-0.088,1.946-0.148,2.92c-0.114,1.964-0.298,3.91-0.298,5.902    c0,0.488,0.066,0.96,0.074,1.446c0.017,1.522,0.145,3.045,0.232,4.571c0.112,1.887,0.209,3.773,0.424,5.631    c0.066,0.578,0.056,1.155,0.131,1.733c0.727,5.475,1.923,10.878,3.575,16.148c0.097,0.314,0.201,0.623,0.3,0.936    c0.851,2.653,1.807,5.262,2.871,7.826c0.172,0.42,0.329,0.847,0.508,1.264c1.111,2.567,2.324,5.083,3.64,7.547    c0.62,1.166,1.308,2.284,1.972,3.422c0.649,1.101,1.3,2.198,1.99,3.273c0.989,1.555,2.009,3.08,3.078,4.577    c0.109,0.151,0.224,0.296,0.334,0.446c17.165,23.848,43.897,38.999,73.175,41.474c1.175,0.103,2.351,0.118,3.528,0.178    c1.631,0.079,3.239,0.248,4.89,0.248c0.928,0,1.826-0.114,2.748-0.139c1.348-0.038,2.697-0.111,4.047-0.205    c2.823-0.19,5.604-0.504,8.361-0.923c0.543-0.085,1.088-0.086,1.631-0.18v26.627c-0.005,4.634-3.76,8.389-8.393,8.393H93.873    c-4.634-0.005-8.389-3.76-8.393-8.393v-67.148c0-4.636-3.758-8.393-8.393-8.393c-4.636,0-8.393,3.758-8.393,8.393v67.148    c0.015,13.9,11.28,25.165,25.18,25.18h318.951c13.9-0.015,25.165-11.28,25.18-25.18v-31.056    C478.192,433.908,505.079,395.931,505.152,353.297z M337.283,109.887c-4.634-0.005-8.389-3.76-8.393-8.393V29.428l80.459,80.459    H337.283z M427.154,434.021c-3.714,1.033-7.492,1.815-11.31,2.341c-0.431,0.059-0.853,0.145-1.288,0.197    c-3.723,0.465-7.474,0.671-11.225,0.616c-0.656-0.008-1.296-0.075-1.948-0.098c-3.455-0.116-6.898-0.455-10.309-1.013    c-0.293-0.047-0.589-0.084-0.881-0.134c-4.001-0.714-7.945-1.716-11.802-2.997c-18.613-6.217-34.519-18.652-45.045-35.215    c-0.248-0.395-0.486-0.797-0.727-1.197c-1.616-2.665-3.081-5.419-4.387-8.248c-0.28-0.605-0.603-1.185-0.868-1.799    c-1.295-3.001-2.409-6.076-3.335-9.211c-0.354-1.191-0.631-2.413-0.934-3.626c-0.572-2.285-1.053-4.596-1.422-6.941    c-0.197-1.216-0.417-2.424-0.56-3.657c-0.168-1.497-0.255-2.984-0.347-4.472c-0.089-1.432-0.201-2.858-0.217-4.308    c-0.018-1.374,0.061-2.733,0.11-4.096c0.061-1.648,0.094-3.302,0.249-4.924c0.084-0.902,0.246-1.786,0.359-2.681    c0.265-2.063,0.527-4.127,0.94-6.14l0.03-0.122c2.157-10.368,6.267-20.231,12.113-29.062c0.216-0.326,0.403-0.665,0.623-0.989    c1.083-1.593,2.271-3.106,3.457-4.618c0.598-0.761,1.174-1.536,1.801-2.281c0.897-1.066,1.861-2.07,2.809-3.09    c1.627-1.748,3.319-3.418,5.076-5.01c0.814-0.74,1.598-1.512,2.443-2.22c2.52-2.112,5.163-4.074,7.914-5.875    c0.718-0.472,1.472-0.89,2.205-1.341c2.443-1.499,4.962-2.873,7.545-4.116c0.627-0.302,1.246-0.621,1.881-0.908    c6.606-2.956,13.567-5.045,20.709-6.215c0.585-0.096,1.173-0.186,1.763-0.27c3.596-0.532,7.222-0.828,10.857-0.887h0.002    c3.905-0.037,7.808,0.199,11.68,0.706c0.231,0.03,0.458,0.074,0.688,0.105c39.393,5.342,69.617,37.616,72.367,77.274    C490.914,387.157,465.432,423.294,427.154,434.021L427.154,434.021z"></path> <path style="fill:#428DFF;" d="M77.086,202.215c-4.63,0.013-8.38,3.763-8.393,8.393v50.361c0,4.636,3.758,8.393,8.393,8.393    c4.636,0,8.393-3.758,8.393-8.393v-50.361C85.466,205.979,81.716,202.229,77.086,202.215z"></path> <path style="fill:#428DFF;" d="M80.279,169.314c-1.01-0.431-2.095-0.659-3.193-0.672c-3.394,0.013-6.449,2.061-7.75,5.196    s-0.596,6.744,1.791,9.157l1.258,1.008c0.468,0.319,0.977,0.574,1.512,0.758c0.476,0.242,0.986,0.41,1.512,0.5    c0.554,0.094,1.115,0.15,1.677,0.168c2.222-0.031,4.351-0.9,5.959-2.434c2.036-1.962,2.93-4.828,2.37-7.599    C84.855,172.624,82.918,170.33,80.279,169.314L80.279,169.314z"></path> <path style="fill:#428DFF;" d="M463.185,344.904h-50.361v-50.361c0-4.636-3.758-8.393-8.393-8.393    c-4.636,0-8.393,3.758-8.393,8.393v50.361c0.011,9.267,7.52,16.776,16.787,16.787h50.361c4.636,0,8.393-3.758,8.393-8.393    S467.82,344.904,463.185,344.904z"></path> <path style="fill:#428DFF;" d="M123.779,403.466l6.127,6.127c2.115,2.148,5.218,2.997,8.132,2.224    c2.913-0.773,5.189-3.048,5.961-5.961c0.772-2.913-0.077-6.017-2.224-8.132l-5.972-5.972    c-0.169-16.281-6.383-31.918-17.437-43.872l-72.91-78.996c-3.585-3.909-8.279-6.627-13.454-7.789    c-8.769-1.968-17.936,0.684-24.3,7.031c-9.978,9.921-10.301,25.965-0.73,36.279l72.058,78.062    C90.664,394.995,106.706,402.523,123.779,403.466z M118.627,386.072c-10.47-1.922-20.037-7.181-27.27-14.992l-54.003-58.509    l13.302-13.302l55.381,60C112.905,366.686,117.304,376.05,118.627,386.072z M19.308,293.019c-3.435-3.7-3.319-9.457,0.262-13.016    v-0.008c1.754-1.766,4.142-2.757,6.631-2.75l0.197,0.004c2.558,0.039,4.987,1.132,6.713,3.021h0.008l6.139,6.656l-13.3,13.3    L19.308,293.019z"></path> </g> </g></g><g></g><g></g><g></g><g></g><g></g><g></g><g></g><g></g><g></g><g></g><g></g><g></g><g></g><g></g><g></g></svg>