<svg xmlns="http://www.w3.org/2000/svg" id="Icons" height="512" viewBox="0 0 60 60" width="512"><path d="m18.03 51.31a1.407 1.407 0 0 0 1.66 1.66l2.31-.46 3.21-.63a3.456 3.456 0 0 0 1.73-.93l.09-.08 17.97-17.98v24.11a2.006 2.006 0 0 1 -2 2h-40a2.006 2.006 0 0 1 -2-2v-50a2.006 2.006 0 0 1 2-2h3v2a2 2 0 0 0 4 0v-2h6v2a2 2 0 0 0 4 0v-2h6v2a2 2 0 0 0 4 0v-2h6v2a2 2 0 0 0 4 0v-2h3a2.006 2.006 0 0 1 2 2v12.11l-.49.49-24.37 24.38-.09.08a3.456 3.456 0 0 0 -.93 1.73l-.63 3.21z" fill="#e8edfc"></path><path d="m43 5h-3a2.006 2.006 0 0 1 2 2v12.11l-.49.49-24.37 24.38-.09.08a3.456 3.456 0 0 0 -.93 1.73l-.63 3.21-.46 2.31a1.407 1.407 0 0 0 1.66 1.66l1.765-.351a1.394 1.394 0 0 1 -.425-1.309l.46-2.31.63-3.21a3.456 3.456 0 0 1 .93-1.73l.09-.08 24.37-24.38.49-.49v-12.11a2.006 2.006 0 0 0 -2-2z" fill="#cad9fc"></path><path d="m42 57a2.006 2.006 0 0 1 -2 2h3a2.006 2.006 0 0 0 2-2v-24.11l-3 3z" fill="#cad9fc"></path><g fill="#a4c3fd"><path d="m10 3v4a2 2 0 0 1 -4 0v-4a2.006 2.006 0 0 1 2-2 1.955 1.955 0 0 1 1.41.59 1.955 1.955 0 0 1 .59 1.41z"></path><path d="m20 3v4a2 2 0 0 1 -4 0v-4a2.006 2.006 0 0 1 2-2 1.955 1.955 0 0 1 1.41.59 1.955 1.955 0 0 1 .59 1.41z"></path><path d="m30 3v4a2 2 0 0 1 -4 0v-4a2.006 2.006 0 0 1 2-2 1.955 1.955 0 0 1 1.41.59 1.955 1.955 0 0 1 .59 1.41z"></path><path d="m40 3v4a2 2 0 0 1 -4 0v-4a2.006 2.006 0 0 1 2-2 1.955 1.955 0 0 1 1.41.59 1.955 1.955 0 0 1 .59 1.41z"></path></g><path d="m54.85 23.05-3.45 3.44-6.89-6.89.49-.49 2.96-2.95 6.88 6.88z" fill="#c6d8fb"></path><path d="m54.84 23.04-6.88-6.88-1.503 1.497 5.383 5.383.01.01-1.948 1.942 1.498 1.498 3.45-3.44z" fill="#a4c3fd"></path><path d="m51.4 26.49-6.4 6.4-17.97 17.98-3.45-3.45 24.38-24.37z" fill="#e8edfc"></path><path d="m27.03 50.87-.09.08a3.456 3.456 0 0 1 -1.73.93l-3.21.63v-.01a3.5 3.5 0 0 0 -3.5-3.5h-.01l.63-3.21a3.456 3.456 0 0 1 .93-1.73l.09-.08z" fill="#e8edfc"></path><path d="m22 52.5v.01l-2.31.46a1.407 1.407 0 0 1 -1.66-1.66l.46-2.31h.01a3.5 3.5 0 0 1 3.5 3.5z" fill="#a4c2f7"></path><path d="m58.29 19.6-3.44 3.45-.01-.01-6.88-6.88 3.44-3.45a2.432 2.432 0 0 1 3.44 0l3.45 3.45a2.432 2.432 0 0 1 0 3.44z" fill="#a4c2f7"></path><path d="m58.29 16.16-3.45-3.45a2.424 2.424 0 0 0 -3.22-.18 2.336 2.336 0 0 1 .22.18l3.45 3.45a2.432 2.432 0 0 1 0 3.44l-1.942 1.948 1.492 1.492.01.01 3.44-3.45a2.432 2.432 0 0 0 0-3.44z" fill="#7facfa"></path><path d="m47.96 23.05-24.38 24.37-3.44-3.44 24.37-24.38z" fill="#e8edfc"></path><path d="m3 59h3a2.006 2.006 0 0 1 -2-2v-50a2.006 2.006 0 0 1 2-2h-3a2.006 2.006 0 0 0 -2 2v50a2.006 2.006 0 0 0 2 2z" fill="#fff"></path><path d="m0 49h2v8h-2z" fill="#fff"></path><circle cx="1" cy="53" fill="#428dff" r="1"></circle><path d="m55.551 12.005a3.438 3.438 0 0 0 -4.858 0l-4.693 4.695v-9.7a3 3 0 0 0 -3-3h-2v-1a3 3 0 0 0 -6 0v1h-4v-1a3 3 0 0 0 -6 0v1h-4v-1a3 3 0 0 0 -6 0v1h-4v-1a3 3 0 0 0 -6 0v1h-2a3 3 0 0 0 -3 3v42a1 1 0 0 0 2 0v-42a1 1 0 0 1 1-1h2v1a3 3 0 0 0 6 0v-1h4v1a3 3 0 0 0 6 0v-1h4v1a3 3 0 0 0 6 0v-1h4v1a3 3 0 0 0 6 0v-1h2a1 1 0 0 1 1 1v11.7l-24.659 24.657a4.372 4.372 0 0 0 -1.2 2.241l-1.1 5.516a2.419 2.419 0 0 0 .008.886h-.239a8.82 8.82 0 0 1 -8.81-8.81 8.832 8.832 0 0 1 5.02-7.947l11.918-5.68a7.126 7.126 0 0 0 -3.068-13.563h-14.87a1 1 0 0 0 0 2h14.87a5.128 5.128 0 0 1 2.21 9.757l-11.918 5.679a10.806 10.806 0 0 0 4.648 20.564h2.59.009.007a2.5 2.5 0 0 0 .47-.045l5.518-1.1a4.392 4.392 0 0 0 2.235-1.2l16.361-16.355v21.7a1 1 0 0 1 -1 1h-40a1 1 0 0 1 -1-1 1 1 0 0 0 -2 0 3 3 0 0 0 3 3h40a3 3 0 0 0 3-3v-23.7l13-12.993a3.438 3.438 0 0 0 0-4.858zm-46.551-5.005a1 1 0 0 1 -2 0v-4a1 1 0 0 1 2 0zm10 0a1 1 0 0 1 -2 0v-4a1 1 0 0 1 2 0zm10 0a1 1 0 0 1 -2 0v-4a1 1 0 0 1 2 0zm10 0a1 1 0 0 1 -2 0v-4a1 1 0 0 1 2 0zm-11.978 42.451-2.03-2.029 22.965-22.965 2.03 2.03zm-5.473-5.473 22.964-22.964 2.03 2.03-22.965 22.964zm24.378-24.378 2.028-2.029 5.473 5.474-2.028 2.028zm-26.427 32.391a.42.42 0 0 1 -.382-.112.412.412 0 0 1 -.113-.379l.271-1.363a2.49 2.49 0 0 1 1.584 1.583zm5.51-1.095-2.187.434a4.489 4.489 0 0 0 -3.157-3.155l.434-2.183a2.364 2.364 0 0 1 .167-.465l5.2 5.2a2.43 2.43 0 0 1 -.454.173zm32.568-32-2.738 2.738-5.474-5.474 2.738-2.738a1.439 1.439 0 0 1 2.03 0l3.444 3.444a1.439 1.439 0 0 1 0 2.03z" fill="#428dff"></path></svg>