<svg xmlns="http://www.w3.org/2000/svg" height="512" viewBox="0 0 60 60" width="512"><g id="Icons"><path d="m55 10.23v36.77a2.006 2.006 0 0 1 -2 2h-19a4 4 0 0 0 -4 4 4 4 0 0 0 -4-4h-19a2.006 2.006 0 0 1 -2-2v-40a2.006 2.006 0 0 1 2-2h19a4 4 0 0 1 4 4 4 4 0 0 1 4-4h15.77l-13.84 13.84a2.883 2.883 0 0 0 -.3.39 2.263 2.263 0 0 0 -.17.43l-1.43 5.14a.958.958 0 0 0 1.17 1.17l5.15-1.42a1.567 1.567 0 0 0 .42-.18 1.846 1.846 0 0 0 .39-.3z" fill="#e8edfc"></path><path d="m28.5 49.9a3.975 3.975 0 0 1 1.5 3.1 4 4 0 0 1 4-4h-3a3.963 3.963 0 0 0 -2.5.9z" fill="#cad9fc"></path><path d="m52 13.23v33.77a2.006 2.006 0 0 1 -2 2h3a2.006 2.006 0 0 0 2-2v-36.77z" fill="#cad9fc"></path><path d="m59 12v41a2.006 2.006 0 0 1 -2 2h-21.43a1.934 1.934 0 0 0 -1.8 1.35 4.007 4.007 0 0 1 -7.54 0 1.934 1.934 0 0 0 -1.8-1.35h-21.43a2.006 2.006 0 0 1 -2-2v-41a2.006 2.006 0 0 1 2-2h2v37a2.006 2.006 0 0 0 2 2h19a4 4 0 0 1 4 4 4 4 0 0 1 4-4h19a2.006 2.006 0 0 0 2-2v-36.77l.23-.23h1.77a2.006 2.006 0 0 1 2 2z" fill="#c6d8fb"></path><path d="m57 10h-1.77l-.23.23v.049a2 2 0 0 1 1 1.721v41a2.006 2.006 0 0 1 -2 2h3a2.006 2.006 0 0 0 2-2v-41a2.006 2.006 0 0 0 -2-2z" fill="#a4c3fd"></path><path d="m50.734 3.722h3.691v7.396h-3.691z" fill="#e8edfc" transform="matrix(.707 -.707 .707 .707 10.154 39.353)"></path><path d="m51.27 3.5-1.5 1.5 3.73 3.73-1.113 1.113 1.503 1.497 2.61-2.61z" fill="#cad9fc"></path><g fill="#e8edfc"><path d="m53.89 11.34-12.73 12.73a1.846 1.846 0 0 1 -.39.3l-2.57-2.57 13.07-13.07z"></path><path d="m40.77 24.37a1.567 1.567 0 0 1 -.42.18l-5.15 1.42a.958.958 0 0 1 -1.17-1.17l1.43-5.14a2.263 2.263 0 0 1 .17-.43z"></path><path d="m51.27 8.73-13.07 13.07-2.57-2.57a2.883 2.883 0 0 1 .3-.39l12.73-12.73z"></path><path d="m58.47 6.76-1.97 1.97-5.23-5.23 1.96-1.96a1.859 1.859 0 0 1 2.62 0l2.62 2.62a1.853 1.853 0 0 1 0 2.6z"></path></g><path d="m58.47 4.16-2.62-2.62a1.859 1.859 0 0 0 -2.62 0l-.19.19 2.43 2.43a1.853 1.853 0 0 1 0 2.6l-.47.47 1.5 1.5 1.97-1.97a1.853 1.853 0 0 0 0-2.6z" fill="#cad9fc"></path></g><g id="Icons_copy_2" data-name="Icons copy 2"><path d="m6 55h-3a2.006 2.006 0 0 1 -2-2v-41a2.006 2.006 0 0 1 2-2h2v.27a2 2 0 0 0 -1 1.73v41a2.006 2.006 0 0 0 2 2z" fill="#fff"></path></g><g id="Icons_copy" data-name="Icons copy"><path d="m0 45h2v8h-2z" fill="#fff"></path><g fill="#428dff"><circle cx="1" cy="49" r="1"></circle><path d="m56.557.834a2.853 2.853 0 0 0 -4.03 0l-3.168 3.166h-15.359a5 5 0 0 0 -4 2 5 5 0 0 0 -4-2h-19a3 3 0 0 0 -3 3v2h-1a3 3 0 0 0 -3 3v33a1 1 0 0 0 2 0v-33a1 1 0 0 1 1-1h1v36a3 3 0 0 0 3 3h19a3 3 0 0 1 3 3 1 1 0 0 0 2 0 3 3 0 0 1 3-3h19a3 3 0 0 0 3-3v-36h1a1 1 0 0 1 1 1v41a1 1 0 0 1 -1 1h-21.43a2.916 2.916 0 0 0 -2.74 2.008 3.006 3.006 0 0 1 -5.657.008 2.92 2.92 0 0 0 -2.743-2.016h-21.43a1 1 0 0 1 -1-1 1 1 0 0 0 -2 0 3 3 0 0 0 3 3h21.43a.95.95 0 0 1 .86.692 5.007 5.007 0 0 0 9.423-.008.945.945 0 0 1 .857-.684h21.43a3 3 0 0 0 3-3v-41a3 3 0 0 0 -2.415-2.941l1.589-1.588a2.848 2.848 0 0 0 0-4.021zm-7.9 6.694 1.2 1.2-11.657 11.661-1.2-1.2zm-12.563 13.583 2.817 2.817-3.911 1.139zm4.72 1.889-1.2-1.2 11.659-11.66 1.2 1.2zm13.71-13.708-.637.637-3.814-3.814 1.2-1.2 3.814 3.815zm-28.524 38.708h-19a1 1 0 0 1 -1-1v-40a1 1 0 0 1 1-1h19a3 3 0 0 1 3 3v40.012a4.967 4.967 0 0 0 -3-1.012zm27 0h-19a4.967 4.967 0 0 0 -3 1.012v-40.012a3 3 0 0 1 3-3h13.359l-12.151 12.145a2.941 2.941 0 0 0 -.714 1.248l-1.424 5.144a1.926 1.926 0 0 0 .5 1.893 1.948 1.948 0 0 0 1.89.5l5.148-1.415a2.841 2.841 0 0 0 1.257-.738l12.135-12.132v34.355a1 1 0 0 1 -1 1zm4.759-41.943-1.259 1.257-3.812-3.814 1.253-1.252a.852.852 0 0 1 1.2 0l2.616 2.616a.855.855 0 0 1 .002 1.193z"></path><path d="m14 24a1 1 0 0 0 -2 0 5.009 5.009 0 0 0 4 4.9v1.1a1 1 0 0 0 2 0v-1.1a5 5 0 0 0 0-9.8v-5.916a3 3 0 0 1 2 2.816 1 1 0 0 0 2 0 5.009 5.009 0 0 0 -4-4.9v-1.1a1 1 0 0 0 -2 0v1.1a5 5 0 0 0 0 9.8v5.917a3 3 0 0 1 -2-2.817zm6 0a3 3 0 0 1 -2 2.816v-5.632a3 3 0 0 1 2 2.816zm-6-8a3 3 0 0 1 2-2.816v5.632a3 3 0 0 1 -2-2.816z"></path><path d="m24 35h-14a1 1 0 0 0 0 2h14a1 1 0 0 0 0-2z"></path><path d="m21 41h-11a1 1 0 0 0 0 2h11a1 1 0 0 0 0-2z"></path></g></g></svg>