<svg xmlns="http://www.w3.org/2000/svg" height="512" viewBox="0 0 60 58" width="512"><g id="Page-1" fill="none" fill-rule="evenodd"><g id="054---Write-Note" transform="translate(0 -1)"><path id="Path" d="m51 16.48v39.52c-.0032948 1.1032019-.8967981 1.9967052-2 2h-46c-1.10320187-.0032948-1.9967052-.8967981-2-2v-43c0-1.1045695.8954305-2 2-2h38.93l-17.34 17.33-3.75 9.52c-.1580752.3748238-.0733416.8080493.2143046 1.0956954.2876461.2876462.7208716.3723798 1.0956954.2143046l9.52-3.75 19.09-19.1c.0689115.0708892.1502622.1285127.24.17z" fill="#e8edfc"></path><path id="Path" d="m50.76 16.31-2.76 2.761v36.929c-.0032948 1.1032019-.8967981 1.9967052-2 2h3c1.1032019-.0032948 1.9967052-.8967981 2-2v-39.52c-.0897378-.0414873-.1710885-.0991108-.24-.17z" fill="#cad9fc"></path><path id="Path" d="m43.69 7.83c-.3877236.39003745-.3877236 1.01996255 0 1.41l-1.76 1.76h-33.49l1.03-7.28c.15479414-1.09343266 1.1665209-1.8544661 2.26-1.7l33.1 4.66z" fill="#a4c2f7"></path><path id="Path" d="m58.98 10.7-5.58 39.61c-.1573542 1.0919193-1.1672651 1.8515868-2.26 1.7l-.14-.02v-35.51c.3838576.2128683.8625953.1433081 1.17-.17l1.42-1.41c.3877236-.3900375.3877236-1.0199625 0-1.41l-.71-.71 2.83-2.83c.3877236-.39003745.3877236-1.01996255 0-1.41l-.37-.37 1.94.27c1.0934327.15479414 1.8544661 1.16652095 1.7 2.26z" fill="#a4c2f7"></path><path id="Path" d="m57.28 8.44-1.94-.27.37.37c.310783.31454633.3730069.79800993.152 1.181.1204259.3113702.1609922.6479329.118.979l-4.98 35.351v5.939l.14.02c1.0927349.1515868 2.1026458-.6080807 2.26-1.7l5.58-39.61c.1544661-1.09347905-.6065673-2.10520586-1.7-2.26z" fill="#7facfa"></path><path id="Path" d="m53.59 14.9-1.42 1.41c-.3074047.3133081-.7861424.3828683-1.17.17-.0897378-.0414873-.1710885-.0991108-.24-.17l-7.07-7.07c-.3877236-.39003745-.3877236-1.01996255 0-1.41l1.14-1.15.27-.27c.3900375-.38772359 1.0199625-.38772359 1.41 0l.71.71 5.66 5.66.71.71c.3877236.3900375.3877236 1.0199625 0 1.41z" fill="#a4c2f7"></path><path id="Path" d="m55.71 9.95-2.83 2.83-5.66-5.66 2.83-2.83c.3900375-.38772359 1.0199625-.38772359 1.41 0l4.25 4.25c.3877236.39003745.3877236 1.01996255 0 1.41z" fill="#e8edfc"></path><path id="Path" d="m25.74 37.74-3.59 1.42c-.3748238.1580752-.8080493.0733416-1.0956954-.2143046-.2876462-.2876461-.3723798-.7208716-.2143046-1.0956954l1.42-3.59z" fill="#a4c2f7"></path><path id="Path" d="m31.67 35.41-5.93 2.33-3.48-3.48 2.33-5.93z" fill="#e8edfc"></path><path id="Path" d="m50.76 16.31-19.09 19.1-7.08-7.08 17.34-17.33 1.76-1.76z" fill="#e8edfc"></path><path id="Path" d="m43.69 9.24-1.5 1.5 5.57 5.57-17.59 17.6 1.5 1.5 19.09-19.1z" fill="#cad9fc"></path><path id="Path" d="m6 11h-3c-1.1045695 0-2 .8954305-2 2v43c.0032948 1.1032019.89679813 1.9967052 2 2h3c-1.10320187-.0032948-1.9967052-.8967981-2-2v-43c0-1.1045695.8954305-2 2-2z" fill="#fff"></path><path id="Path" d="m11.44 11 1.03-7.28c.0860875-.61522775.4564847-1.15415564 1-1.455l-1.74-.245c-1.0934791-.1544661-2.10520586.60656734-2.26 1.7l-1.03 7.28z" fill="#fff"></path><path id="Rectangle" d="m0 48h2v8h-2z" fill="#fff"></path><g fill="#428dff"><circle id="Oval" cx="1" cy="52" r="1"></circle><path id="Shape" d="m3 59h46c1.6568542 0 3-1.3431458 3-3v-3.034c.4429734-.0866718.8608851-.2715371 1.223-.541.6390641-.4747824 1.0597651-1.1871261 1.167-1.976l5.581-39.614c.2285958-1.63943408-.9138717-3.1542216-2.553-3.385l-1.606-.224-3.641-3.64c-.7809997-.78076388-2.0470003-.78076388-2.828 0l-2.121 2.121c-.7452009-.7368107-1.9327849-.77345914-2.722-.084l-32.632-4.6c-.7884173-.110581-1.5884573.09676017-2.22392143.57635929-.63546414.47959912-1.05423316 1.19212059-1.16407857 1.98064071l-.909 6.42h-4.571c-1.65685425 0-3 1.3431458-3 3v35c0 .5522847.44771525 1 1 1s1-.4477153 1-1v-35c0-.5522847.44771525-1 1-1h36.515l-15.628 15.628c-.0956602.0958784-.1708471.2101897-.221.336l-3.566 9.036h-12.1c-.55228475 0-1 .4477153-1 1s.44771525 1 1 1h11.937c.0944432.2406234.2350893.4604253.414.647.5658614.5700343 1.4186039.7446829 2.163.443l9.518-3.754h.005c.1258103-.0501529.2401216-.1253398.336-.221l17.627-17.63v37.515c0 .5522847-.4477153 1-1 1h-46c-.55228475 0-1-.4477153-1-1s-.44771525-1-1-1-1 .4477153-1 1c0 1.6568542 1.34314575 3 3 3zm41.394-50.465 1.414-1.414.707.707 5.657 5.657.707.707-1.415 1.414zm13.6 2.026-5.585 39.613c-.0355682.2604365-.1752031.4953262-.387.651-.006 0-.015.006-.022.011v-33.311c.3311046-.0876328.6336934-.2599499.878-.5l1.415-1.415c.7807639-.7809997.7807639-2.0470003 0-2.828l2.121-2.121c.3323709-.3348716.5341658-.77747261.569-1.248l.161.023c.5428648.07942871.9203606.5814178.846 1.125zm-7.237-5.561 4.243 4.242.113-.113-2.234 2.235-4.243-4.243zm-41.166 5 .87-6.144c.0793837-.544648.5839756-.92275673 1.129-.846l31.162 4.39c-.3405798.47822653-.4450916 1.08542519-.284 1.65l-.953.95zm20.288 25.033-3.9 1.533-2.55-2.551 1.535-3.895zm-8.108 3.188.859-2.177 1.32 1.32zm9.894-4.23-2.121-2.121 11.314-11.313c.3789722-.3923789.3735524-1.0160848-.0121814-1.4018186s-1.0094397-.3911536-1.4018186-.0121814l-11.314 11.313-2.121-2.121 16.623-16.624.009-.009 1.046-1.046 2.121 2.122-3.536 3.535c-.2527654.2525868-.3515768.6208353-.259213.96603.0923639.3451946.3618707.6148921.707.7075s.7134476-.0059432.966213-.25853l3.536-3.536 2.121 2.121z" fill-rule="nonzero"></path><path id="Path" d="m8 33h9c.5522847 0 1-.4477153 1-1s-.4477153-1-1-1h-9c-.55228475 0-1 .4477153-1 1s.44771525 1 1 1z"></path><path id="Path" d="m8 27h13c.5522847 0 1-.4477153 1-1s-.4477153-1-1-1h-13c-.55228475 0-1 .4477153-1 1s.44771525 1 1 1z"></path><path id="Path" d="m8 21h6c.5522847 0 1-.4477153 1-1s-.4477153-1-1-1h-6c-.55228475 0-1 .4477153-1 1s.44771525 1 1 1z"></path><path id="Path" d="m25 21c.5522847 0 1-.4477153 1-1s-.4477153-1-1-1h-7c-.5522847 0-1 .4477153-1 1s.4477153 1 1 1z"></path></g></g></g></svg>