<svg xmlns="http://www.w3.org/2000/svg" id="Icons" height="512" viewBox="0 0 60 60" width="512"><path d="m37.22 29.77v.01a2.009 2.009 0 0 1 -.34.28 2.812 2.812 0 0 1 -1.33.51l-4.65.42a1.735 1.735 0 0 1 -1.89-1.89l.41-4.65a2.7 2.7 0 0 1 .79-1.67l.01-.01z" fill="#c6d8fb"></path><path d="m28.776 14.335h21.804v4.96h-21.804z" fill="#e8edfc" transform="matrix(.707 -.707 .707 .707 -.269 32.981)"></path><path d="m32.278 17.844h21.804v4.946h-21.804z" fill="#e8edfc" transform="matrix(.707 -.707 .707 .707 -1.725 36.469)"></path><path d="m57.55 9.46-1.4 1.4-7.01-7.01 1.39-1.4a4.96 4.96 0 1 1 7.02 7.01z" fill="#a4c2f7"></path><path d="m57.55 2.45a4.954 4.954 0 0 0 -5.007-1.194 4.9 4.9 0 0 1 2.1 8.094l1.51 1.51 1.4-1.4a4.967 4.967 0 0 0 -.003-7.01z" fill="#7facfa"></path><path d="m56.15 10.86-3.51 3.5-7.01-7.01 3.51-3.5z" fill="#c6d8fb"></path><path d="m29.42 24.45-.41 4.65a1.735 1.735 0 0 0 1.89 1.89l.77-.07a13 13 0 0 1 -25.67-2.92v-14a13 13 0 0 1 26 0v6.99l-1.79 1.79a2.7 2.7 0 0 0 -.79 1.67z" fill="#c6d8fb"></path><path d="m30.21 22.78 1.79-1.79v-6.99a12.95 12.95 0 0 0 -14.5-12.907 13 13 0 0 1 11.5 12.907v6.99l-1.79 1.79a2.7 2.7 0 0 0 -.79 1.67l-.41 4.65a1.735 1.735 0 0 0 1.89 1.89l.77-.07a13.006 13.006 0 0 1 -11.17 9.987 13.278 13.278 0 0 0 1.5.093 13.018 13.018 0 0 0 12.67-10.08l-.77.07a1.735 1.735 0 0 1 -1.89-1.89l.41-4.65a2.7 2.7 0 0 1 .79-1.67z" fill="#a4c3fd"></path><path d="m36.88 30.06a17.959 17.959 0 0 1 -17.88 15.94 17.617 17.617 0 0 1 -5-.71 17.983 17.983 0 0 1 -13-17.29v-4.36a2.6 2.6 0 0 1 2.24-2.63 2.5 2.5 0 0 1 2.76 2.49v4.5a13 13 0 0 0 25.67 2.92l3.88-.35a2.687 2.687 0 0 0 1.33-.51z" fill="#e8edfc"></path><path d="m35.55 30.57-1.772.16a18.008 18.008 0 0 1 -12.778 14.57 17.75 17.75 0 0 1 -3.5.633c.5.04.993.067 1.5.067a17.959 17.959 0 0 0 17.88-15.94 2.687 2.687 0 0 1 -1.33.51z" fill="#cad9fc"></path><path d="m24 45.3v7.7h-10v-7.71a17.617 17.617 0 0 0 5 .71 17.976 17.976 0 0 0 5-.7z" fill="#c6d8fb"></path><path d="m28 56v2a1 1 0 0 1 -1 1h-16a1 1 0 0 1 -1-1v-2a3 3 0 0 1 3-3h12a3 3 0 0 1 3 3z" fill="#c6d8fb"></path><path d="m25 53h-3a3 3 0 0 1 3 3v2a1 1 0 0 1 -1 1h3a1 1 0 0 0 1-1v-2a3 3 0 0 0 -3-3z" fill="#a4c3fd"></path><path d="m6 19h6a2 2 0 0 1 0 4h-6z" fill="#a4c2f7"></path><path d="m32 14v1h-6a2.015 2.015 0 0 1 -2-2 2.006 2.006 0 0 1 2-2h5.65a12.9 12.9 0 0 1 .35 3z" fill="#a4c2f7"></path><path d="m31.65 11h-3a12.9 12.9 0 0 1 .35 3v1h3v-1a12.9 12.9 0 0 0 -.35-3z" fill="#7facfa"></path><g fill="#a4c2f7"><path d="m14 13a2.015 2.015 0 0 1 -2 2h-6v-1a12.9 12.9 0 0 1 .35-3h5.65a2.006 2.006 0 0 1 2 2z"></path><path d="m14 29a2.006 2.006 0 0 1 -2 2h-5.65a12.9 12.9 0 0 1 -.35-3v-1h6a2.015 2.015 0 0 1 2 2z"></path><path d="m32 19v1.99l-1.79 1.79a2.089 2.089 0 0 0 -.2.22h-4.01a2.015 2.015 0 0 1 -2-2 2.006 2.006 0 0 1 2-2z"></path></g><path d="m29 19v1.99l-1.79 1.79a2.089 2.089 0 0 0 -.2.22h3a2.089 2.089 0 0 1 .2-.22l1.79-1.79v-1.99z" fill="#7facfa"></path><path d="m30.74 31h-4.74a2.006 2.006 0 0 1 -2-2 2.015 2.015 0 0 1 2-2h3.2l-.19 2.1a1.737 1.737 0 0 0 1.73 1.9z" fill="#a4c2f7"></path><path d="m29.01 29.1.19-2.1h-3l-.19 2.1a1.737 1.737 0 0 0 1.73 1.9h3a1.737 1.737 0 0 1 -1.73-1.9z" fill="#7facfa"></path><path d="m1 28a17.994 17.994 0 0 0 13 17.29v7.71h-1a3 3 0 0 0 -3 3v2a1 1 0 0 0 1 1h3a1 1 0 0 1 -1-1v-2a3 3 0 0 1 3-3h1v-7.71a17.994 17.994 0 0 1 -13-17.29v-4.36a2.725 2.725 0 0 1 1.01-2.12 2.5 2.5 0 0 0 -4.01 2.12z" fill="#fff"></path><path d="m3.65 35.309-1.8.861a19.121 19.121 0 0 1 -1.85-8.17h2a17.129 17.129 0 0 0 1.65 7.309z" fill="#fff"></path><path d="m1.461 32.974a1 1 0 0 1 -.01-2h.01a1 1 0 1 1 0 2z" fill="#428dff"></path><path d="m1 29a1 1 0 0 0 1-1v-4.36a1.593 1.593 0 0 1 1.339-1.635 1.515 1.515 0 0 1 1.167.379 1.486 1.486 0 0 1 .494 1.116v4.5a14 14 0 0 0 27.454 3.854l3.168-.29a17 17 0 0 1 -28.644 8.46 17.274 17.274 0 0 1 -3.328-4.715 1.02 1.02 0 0 0 -1.3-.484.981.981 0 0 0 -.5 1.345 19.451 19.451 0 0 0 3.718 5.267l.786-.785-.786.785a18.973 18.973 0 0 0 7.432 4.581v5.982a4 4 0 0 0 -4 4v2a2 2 0 0 0 2 2h16a2 2 0 0 0 2-2v-2a4 4 0 0 0 -4-4v-5.987a18.943 18.943 0 0 0 12.807-15.426c.036-.034.079-.061.113-.1l20.338-20.324a5.958 5.958 0 0 0 -8.431-8.421l-16.827 16.826v-4.568a14 14 0 0 0 -28 0v6.355a3.523 3.523 0 0 0 -1.859-.34 3.607 3.607 0 0 0 -3.141 3.625v4.36a1 1 0 0 0 1 1zm26 27v2h-16v-2a2 2 0 0 1 2-2h12a2 2 0 0 1 2 2zm-4-4h-8v-5.432a18.608 18.608 0 0 0 8-.006zm-16-24h5a.978.978 0 0 1 .712.306.957.957 0 0 1 .288.694 1 1 0 0 1 -1 1h-4.819a11.986 11.986 0 0 1 -.181-2zm28.133-1.725 14-14 2.091 2.09-14.008 14zm11.912-18.923 2.091-2.091 5.6 5.6-2.092 2.09zm.678 3.506-14 14-2.096-2.088 14-14zm-16.723 9.71-1.432 1.432h-3.568a.978.978 0 0 1 -.712-.306.957.957 0 0 1 -.288-.694 1 1 0 0 1 1-1h5zm-2.884 9.432h-2.116a1 1 0 0 1 -1-1 .978.978 0 0 1 .306-.713.965.965 0 0 1 .694-.287h2.1l-.09 1.008a2.729 2.729 0 0 0 .106.992zm2.694 0a.714.714 0 0 1 -.593-.213.736.736 0 0 1 -.214-.6l.416-4.643c0-.043.026-.08.034-.122l5.117 5.118c-.039.006-.073.027-.112.03zm23.233-27.995a3.948 3.948 0 0 1 2.8 6.744l-.7.7-5.6-5.6.689-.689a3.962 3.962 0 0 1 2.811-1.155zm-23.043 11.995h-5a.978.978 0 0 1 -.712-.306.957.957 0 0 1 -.288-.694 1 1 0 0 1 1-1h4.819a11.986 11.986 0 0 1 .181 2zm-12-12a12.01 12.01 0 0 1 11.3 8h-4.3a3 3 0 0 0 -3 3 3.017 3.017 0 0 0 3 3h5v2h-5a3 3 0 0 0 -3 3 3.017 3.017 0 0 0 3 3h2.494a3.389 3.389 0 0 0 -.066.362l-.147 1.638h-2.281a3.015 3.015 0 0 0 -3 3 3 3 0 0 0 3 3h4.3a11.978 11.978 0 0 1 -22.6 0h4.3a3 3 0 0 0 3-3 3.017 3.017 0 0 0 -3-3h-5v-2h5a3 3 0 0 0 0-6h-5v-2h5a3.015 3.015 0 0 0 3-3 3 3 0 0 0 -3-3h-4.3a12.01 12.01 0 0 1 11.3-8zm-12 20v-2h5a1 1 0 0 1 0 2zm.181-10h4.819a1 1 0 0 1 1 1 .978.978 0 0 1 -.306.713.965.965 0 0 1 -.694.287h-5a11.986 11.986 0 0 1 .181-2z" fill="#428dff"></path></svg>